<svg id="Layer_3" data-name="Layer 3" xmlns="http://www.w3.org/2000/svg" viewBox="0 0 485.05 965.09"><defs><style>.cls-1{fill:none;stroke:#fff;stroke-miterlimit:10;stroke-width:5px;}.cls-2{fill:#fff;}</style></defs><title>logo</title><path class="cls-1" d="M500,20c265.12,0,480,214.92,480,480S765.12,980,500,980V20Z" transform="translate(-497.5 -17.45)"/><line class="cls-1" x1="2.5" y1="508.05" x2="481.5" y2="508.05"/><path class="cls-2" d="M693.62,478.17c-0.42.47-.86,0.92-1.25,1.4-4.36,5.43-8.74,10.85-14,15.4a32,32,0,0,1-6.47,4.48c-3.58,1.77-7.32,2-10.77-.57a8.6,8.6,0,0,1-3.63-7.33c0-.78,0-1.56,0-2.48a7,7,0,0,0-.76.47q-7.78,6.48-15.54,13a1.84,1.84,0,0,0-.49,1.24c-0.08,3.32-.1,6.64-0.13,10-0.17,15.11-.78,30.21-2.32,45.25-1.23,12.06-3,24-6.43,35.69A68.13,68.13,0,0,1,619.3,618.9a23.46,23.46,0,0,1-7.7,6.57c-4.56,2.24-8.78,1.48-12.66-1.58-4.81-3.79-7.52-8.93-9.19-14.69-2-6.72-2.22-13.61-2.14-20.55,0.25-20.48,7.12-38.77,18.14-55.75a222.64,222.64,0,0,1,23.89-30.28,3,3,0,0,0,.9-2.33c-0.36-12.83-.72-25.65-2.88-38.34a33.5,33.5,0,0,0-2-6.88c-1.28-3.15-2.76-3.38-4.71-.63a99.6,99.6,0,0,0-5.53,9.1c-4.23,7.56-8.3,15.21-12.6,22.73a32.8,32.8,0,0,1-4.75,6.3c-4.75,5-11.62,4.08-15.24-1.82-0.37-.6-0.7-1.24-1-1.78-1.93,1.75-3.73,3.57-5.72,5.14-2.75,2.16-5.74,4-9.37,4.2-5.41.29-9-2.5-9.13-7.81-0.1-3.22.33-6.45,0.53-9.68,0.05-.83.12-1.66,0.19-2.5l-0.29-.19c-0.45.49-.91,1-1.36,1.48-4,4.52-7.91,9.11-12,13.53a26,26,0,0,1-8.49,6.37c-3.85,1.68-7.68,1.92-11.15-1-2.82-2.35-3.51-5.47-3.13-9a15.09,15.09,0,0,1,8.56-12.35,25.22,25.22,0,0,1,20.1-1.45,8.5,8.5,0,0,1,1.93,1.3c1.2-1.24,2.55-2.69,4-4.08a9.52,9.52,0,0,1,1.8-1.38c2-1.17,3.63-.38,3.84,1.9a23.53,23.53,0,0,1-.09,4.19c-0.3,3.5-.7,7-1,10.49a10,10,0,0,0,.16,2.27,5,5,0,0,0,5.91,4.55,12.93,12.93,0,0,0,7.14-3.13c2.14-1.84,4.08-3.92,6.06-6a1.6,1.6,0,0,0,.28-1.29c-2.09-8.51-1.87-17.13-1.25-25.76,0.34-4.74.88-9.47,1.31-14.2a3.13,3.13,0,0,1,2.08-3.07,4.47,4.47,0,0,1,4.73.72,3,3,0,0,1,.62,2.05c-0.21,8.71-.55,17.42-0.71,26.13a63.48,63.48,0,0,0,1.49,15,15.41,15.41,0,0,0,1.51,4c1.09,2,2.64,2.41,4.5,1.13a12.75,12.75,0,0,0,3.78-3.59c3.17-5.26,6.15-10.64,9.1-16,3.36-6.12,6.54-12.35,10-18.42a19.85,19.85,0,0,1,4.1-4.79c2-1.79,3.88-1.73,6.11-.24a16.34,16.34,0,0,1,5.72,7.25,60.08,60.08,0,0,1,4.52,16.72c1,7.88,1.59,15.81,2.35,23.73l0.13,1.34c1.21-1,2.23-1.94,3.37-2.71,4.76-3.24,9.55-6.42,14.32-9.62a3.39,3.39,0,0,0,1.07-.91c2.67-4.49,6.9-6.78,11.71-8.14a25.39,25.39,0,0,1,15,.52,3.35,3.35,0,0,1,1.48,1.11l4.79-4.15a11.85,11.85,0,0,1,1.14-.88c0.85-.56,1.75-1.09,2.79-0.6a2.67,2.67,0,0,1,1.44,2.7,51.31,51.31,0,0,1-.36,5.49c-0.49,3.69-1.12,7.37-.59,11.09,0.45,3.19,2.75,4.86,5.95,4.49,3.86-.45,6.83-2.58,9.52-5.16,1.44-1.38,2.7-2.94,4.08-4.39a3.34,3.34,0,0,1,1.42-1,1.72,1.72,0,0,1,1.47.39,1.56,1.56,0,0,1,0,1.49c-4,5.3-8.53,9.88-15.15,11.74a9.28,9.28,0,0,1-7.4-1,7,7,0,0,1-3.44-6.35c0-3.35.34-6.69,0.54-10,0-.78.11-1.57,0.17-2.35Zm-63.06,30.37c-0.27.25-.37,0.32-0.45,0.41a230.73,230.73,0,0,0-21.72,28.78C596.81,556,590.64,575.85,591,597.59a43.69,43.69,0,0,0,2.37,14.48,19.2,19.2,0,0,0,5.38,8.24c2.79,2.4,5.73,2.7,8.63.5a25.16,25.16,0,0,0,4.94-5,63.78,63.78,0,0,0,10.12-21.43c4-14.64,5.67-29.65,6.66-44.73,0.72-10.92,1-21.87,1.45-32.81C630.65,514.15,630.56,511.45,630.56,508.54Zm56.22-29.44a24.8,24.8,0,0,1-3.1-.51c-6.35-1.92-11.59-.1-15.8,4.8a14.45,14.45,0,0,0-3.95,9.77c0,2.23,1.08,3.07,3.31,2.86a9.38,9.38,0,0,0,5.18-2.29,84.39,84.39,0,0,0,6.65-6C681.76,485,684.23,482,686.78,479.11Zm-135.67,0c-1-.14-2-0.25-2.9-0.41a41,41,0,0,0-4.59-.77c-4.79-.23-8.44,2.13-11.39,5.6a14.46,14.46,0,0,0-3.89,9.67c0,2.14,1,3,3.19,2.88a9.73,9.73,0,0,0,5-2.08C542.28,489.83,546.66,484.38,551.11,479.06Z" transform="translate(-497.5 -17.45)"/></svg>